PathFileType	3	(X/Y/Z)	results
DataRate	CameraRate	NumFrames	NumMarkers	Units	OrigDataRate	OrigDataStartFrame	OrigNumFrames
30.0	30.0	4	85	mm	30.0	132	262
Frame#	Time	head			nose			neck			shoulder_r			elbow_r			wrist_r			shoulder_l			elbow_l			wrist_l			hip_r			knee_r			ankle_r			hip_l			knee_l			ankle_l			heel_r			heel_l			mtoe_r			ltoe_r			mtoe_l			ltoe_l			asis_l			asis_r			psi_r			psi_l			mhnd_r			lhnd_r			mhnd_l			lhnd_l			l_lat_knee			r_med_wrist			l_lat_ankle			r_med_ankle			r_lat_knee			xiphoid			l_med_ankle			r_med_knee			l_med_elbow			navel			r_lat_elbow			r_lat_wrist			l_med_wrist			l_lat_elbow			l_med_knee			r_med_elbow			r_lat_ankle			l_lat_wrist			chin			T10			r_eye			l_eye			l_ear			r_ear			spinal_cord_8			spinal_cord_12			spinal_cord_27			spinal_cord_33			up_arm_r_0			up_arm_r_5			up_arm_l_0			up_arm_l_5			front_torso_11			front_torso_7			front_torso_4			front_torso_1			front_torso_10			thigh_r_2			thigh_r_3			thigh_l_1			thigh_l_5			shank_l_0			shank_l_4			shank_r_1			shank_r_2			foot_r_1			foot_r_3			foot_r_5			foot_r_6			foot_r_7			foot_l_1			foot_l_7			foot_l_0			foot_l_4			foot_l_5			foot_l_6			
		X1	Y1	Z1	X2	Y2	Z2	X3	Y3	Z3	X4	Y4	Z4	X5	Y5	Z5	X6	Y6	Z6	X7	Y7	Z7	X8	Y8	Z8	X9	Y9	Z9	X10	Y10	Z10	X11	Y11	Z11	X12	Y12	Z12	X13	Y13	Z13	X14	Y14	Z14	X15	Y15	Z15	X16	Y16	Z16	X17	Y17	Z17	X18	Y18	Z18	X19	Y19	Z19	X20	Y20	Z20	X21	Y21	Z21	X22	Y22	Z22	X23	Y23	Z23	X24	Y24	Z24	X25	Y25	Z25	X26	Y26	Z26	X27	Y27	Z27	X28	Y28	Z28	X29	Y29	Z29	X30	Y30	Z30	X31	Y31	Z31	X32	Y32	Z32	X33	Y33	Z33	X34	Y34	Z34	X35	Y35	Z35	X36	Y36	Z36	X37	Y37	Z37	X38	Y38	Z38	X39	Y39	Z39	X40	Y40	Z40	X41	Y41	Z41	X42	Y42	Z42	X43	Y43	Z43	X44	Y44	Z44	X45	Y45	Z45	X46	Y46	Z46	X47	Y47	Z47	X48	Y48	Z48	X49	Y49	Z49	X50	Y50	Z50	X51	Y51	Z51	X52	Y52	Z52	X53	Y53	Z53	X54	Y54	Z54	X55	Y55	Z55	X56	Y56	Z56	X57	Y57	Z57	X58	Y58	Z58	X59	Y59	Z59	X60	Y60	Z60	X61	Y61	Z61	X62	Y62	Z62	X63	Y63	Z63	X64	Y64	Z64	X65	Y65	Z65	X66	Y66	Z66	X67	Y67	Z67	X68	Y68	Z68	X69	Y69	Z69	X70	Y70	Z70	X71	Y71	Z71	X72	Y72	Z72	X73	Y73	Z73	X74	Y74	Z74	X75	Y75	Z75	X76	Y76	Z76	X77	Y77	Z77	X78	Y78	Z78	X79	Y79	Z79	X80	Y80	Z80	X81	Y81	Z81	X82	Y82	Z82	X83	Y83	Z83	X84	Y84	Z84	X85	Y85	Z85	
132	4.4	89.66009026553331	1597.5974805463645	-321.9525151567022	85.58080021943121	1400.6859382990347	-377.99636381333266	78.56947905870922	1320.0956984761317	-201.423556054527	236.82647094046342	1288.7448589589962	-193.2863695730742	299.0201893096793	1118.4160116065236	-377.5061905388969	151.54328913743126	1276.2750910038346	-453.83112012157704	-57.49790136729919	1282.0734016342305	-224.0631565495943	-115.32312890960733	1109.043792192594	-396.2205497588167	38.77584642513536	1263.242851265465	-477.80951554488183	179.9540180376648	835.9026983745055	-23.669561481631906	215.88522389720632	475.9651488445088	-170.2536487378623	257.12957689546135	111.03346917790424	-80.47531534583533	-19.671203960149555	823.8614104250178	-19.87742704449297	-66.41407669342698	477.5352833935741	-165.60025226265108	-94.50721354831492	115.76444407645681	-69.30963746296999	255.65499138265452	57.423795600361785	-57.109407660149905	-101.14536510894712	56.07720258040029	-35.6751577632563	286.7179788615344	34.53414532479888	-283.1834495511718	343.90085479528005	32.459267915381716	-212.6114823067518	-98.96150887780134	46.86848824539398	-266.1922939890905	-176.86931766882995	30.436912933533314	-206.03425798704484	-67.40810863079949	855.5317907589108	-88.1350642939174	225.0286166957779	872.1923901923963	-89.22041698499497	123.61168988741828	952.7173814061447	23.06075894673766	24.14210920471902	943.4484458877728	20.00386556872101	103.08873737010487	1304.9443599962447	-500.8621439561817	103.83192696002425	1347.462244973232	-468.2934568309143	89.07942830383662	1292.7503809585833	-526.9366174574998	92.74557387187804	1331.9259807509104	-490.77615450010967	-113.37713467577765	480.77219244593573	-163.372674249219	157.81904730810996	1258.6698520686275	-475.7765009988932	-144.98353854313189	108.6870751028739	-54.03165495198757	227.80026227533133	94.28278508142846	-96.30547990778994	258.572026385953	470.84610769999506	-166.38679517242628	92.05365163882009	1126.6865674665291	-237.31873495276605	-69.03514141769917	98.49848025940605	-83.6096757381345	174.81981097561632	470.93373661996236	-176.3161479603287	-97.85041209087505	1091.4335021046024	-372.25589362671275	92.5325984775327	911.1004663671569	-180.9628633026012	324.76943953926826	1147.08754645556	-386.2739409267077	151.26830548995315	1280.6763191442408	-422.3505395153844	26.47103728632337	1247.1825294852317	-503.0951222714075	-139.33376673143366	1138.1280742747413	-402.12637590424066	-22.515177450976193	481.0729856865688	-181.17455251407597	272.9561840159462	1099.5068331630744	-360.466061378124	304.4034567078765	100.14236713653274	-71.72897977108387	30.445040283176226	1274.8947908186633	-450.1251739082039	85.8717724517028	1337.9804639480112	-336.36450414333405	68.95350717998132	1200.1643524658275	-54.06571112575103	117.45882005865788	1429.2579024015706	-387.8586223837914	50.98850937437244	1429.4791081162446	-387.07221480293475	1.741535486776205	1457.3369048019738	-292.27205321877983	166.63014379986308	1454.7709335271459	-290.900050902627	72.35701408963965	1392.6965386552367	-173.85441341221602	66.21536654081562	1296.3762558760561	-86.7108274854356	82.65165914635858	1049.700410138325	-19.083004981653122	70.43958015632688	1186.7194055578868	-63.40479278513675	248.3162478407872	1231.6017949557474	-315.71667264942647	304.1751525487522	1174.1111814584785	-281.0973140998603	-90.78615016511446	1262.7704509190899	-267.19295489722424	-91.2589173734133	1128.382624048096	-321.88879876636855	131.85982368844338	952.4993394260671	-147.4287446690627	97.12732825898848	1033.2619460842525	-238.36731226105036	33.39762611567506	1165.7446044972228	-263.8792069560038	24.589049600156454	978.6892884352394	-173.98806046739023	166.19852104082403	1208.736906712869	-270.4778093694241	181.66349342583777	640.3660963542181	-104.4522050376454	279.69446288978963	611.8596184852756	-105.73367161499196	-7.193561222975338	572.9714219339718	-122.8506718466451	-127.62946177403455	747.6888371628102	-71.57954774193351	-153.37647416960647	208.6788154064113	-91.25314304876352	-32.2192077395909	331.1189875032671	-140.099460869759	288.7460398733692	328.4547897385157	-120.82276993999167	200.33722675082421	278.5329762046568	-134.7101863554402	307.1418348118613	27.833656533768718	-261.0130233971321	328.9776645434724	30.20587508731396	-240.61301557272753	262.28281977988945	51.21432545694196	-202.78676969391785	297.60203513176054	58.05689913912168	-184.13987049337817	326.58048994572925	44.456128444882296	-166.45770013435515	-147.28150224472427	31.93696770184285	-237.65604198415883	-164.09741581067271	65.57307992441963	-131.09365604316943	-162.12380675374857	31.263711735345293	-229.09349044909328	-129.02372306396921	32.75785463037417	-247.51661222657447	-135.01905043284654	50.611116032743205	-188.39538335881983	-103.71981326453027	65.92796511706592	-159.70029266377594	
133	4.433333333333334	91.1498874961147	1613.6057178442124	-313.15670157678824	84.86004552663206	1415.9662291220952	-366.36177121689354	78.48976671260354	1334.7414067231157	-195.17929600581024	232.84364664974493	1303.1255412342462	-185.69158369151802	296.65350474738665	1136.0255669697167	-372.30031310159524	150.21862651173387	1294.5103173859175	-449.3316718459861	-53.056105735131744	1296.8442671137527	-214.81367516779278	-116.28552870288044	1127.87711963612	-389.09308836647506	41.40828388670552	1278.2548012796574	-470.9455024462782	181.59151921293466	845.6402206898574	-30.147983150892607	211.87381207993542	478.77015777342916	-158.41601176037335	256.4934051213107	111.63399515953026	-79.95260217892074	-17.980425559461402	832.8396670450558	-26.05080816088641	-62.027500793001465	479.4966575540122	-152.3271347552373	-94.62064416438493	115.29388329753264	-67.27848252537748	255.37676127523895	57.876532583158074	-57.862725628589395	-101.95780391982854	55.4309456154117	-34.962784829072184	287.03028284742635	35.826139239714045	-283.9382714606688	344.09784893691386	34.00525192652765	-213.2660262219585	-98.12812198204551	46.931916492180505	-265.4857116318518	-176.52331832647837	30.564740418382335	-205.9464693545156	-65.92053333815969	863.9354012160226	-94.43012874421426	226.4471862875691	881.7336444574692	-95.95687104357306	124.84624281995072	962.496711937066	15.986440233229093	25.410261817937972	952.82147249456	13.100150598101463	102.51389754715076	1323.6318742160524	-496.84884281257143	102.63907038462932	1365.7843295741902	-463.8004374987383	92.04265855614508	1306.7306780093447	-520.3408599919084	97.22836269030694	1345.4497409506446	-483.8759458786397	-109.22350416840084	481.980778434291	-151.16931120463045	156.89153146031535	1277.1605785511488	-471.36319976271426	-145.30604729163653	108.27577582054798	-52.68049076465965	227.212253331291	95.13357430145098	-96.13093599922351	254.64670994710164	473.1562343394465	-155.58296010390515	92.51028427604658	1142.7812758852629	-237.98247336642186	-69.1885005366501	98.20722844329022	-81.86214997291721	170.78512212182662	473.6789190866039	-164.52690776880374	-99.1719282751591	1109.4704718340718	-365.4701569092559	93.6803675404776	925.3195281171401	-189.375891409442	322.52433235819007	1164.8124493942457	-380.29843312175524	149.4072798113012	1298.559193039658	-417.8130788741303	28.377390654545906	1262.792664561661	-496.2402117911551	-139.54297250867057	1157.6686513992877	-394.46346248095335	-18.347491240112944	481.951925526239	-168.90182537548048	270.39785746809076	1116.8521836070415	-355.86018659518203	303.89879857614727	100.86556004755742	-71.78537016239441	33.709301674918215	1289.890792166564	-443.0721785116453	85.23315428554484	1353.8490410855811	-323.85778718833893	69.3705452861826	1209.5871945532642	-52.19820596314523	116.81734299872831	1444.1526607821072	-377.04285890554854	50.36674030491097	1444.8934096115252	-375.3880887955301	2.586610665212902	1474.4509553197397	-280.3522923135132	167.45519415213195	1470.6429380418335	-281.106569313895	72.08961213428816	1406.2906702650484	-165.02510475953952	66.316726030902	1306.896730478686	-81.37799006192564	83.54678959163067	1058.0096868047328	-22.63268078045246	70.88727948269603	1196.48943858027	-62.01358992598985	245.4787989433783	1248.1618119851532	-309.00364815325327	300.9191408949589	1189.9826750390123	-274.8650428750156	-87.0524537087533	1279.0464451125008	-258.0383993000739	-91.35891661530779	1145.5109056773463	-314.62162067793474	132.91759245811426	965.6095168065594	-154.4160367467732	97.85880333850471	1049.4695283077597	-242.37709475058344	33.71351055985553	1182.5891615678997	-263.0780884802775	25.544305247334925	992.412417864218	-179.92900103404236	166.38042554316783	1226.186310586048	-268.2487328146174	180.27366426463198	646.3573886660615	-101.19681603751857	277.97867480720583	616.7426962964329	-102.21334043536864	-3.7056676867628404	576.9220953962935	-115.53485616651756	-125.36956833195434	753.2957535873154	-73.70260223650315	-152.35413561926532	209.42467520201396	-86.93619508295733	-29.53171597916431	332.03616300224087	-130.95571359164703	286.167627337332	330.4250853141842	-113.85611029524125	198.08294862445555	280.2336252053155	-128.79173037382236	307.4645035639197	29.224608305414993	-261.74771827235736	329.24390440356757	31.711060827226376	-241.30104487319082	262.31964889538324	52.1043473294639	-203.54339568036323	297.55073875245284	59.169613652313934	-184.81302043763836	326.6007641628278	45.74588129244495	-167.1130094581164	-146.7018072071813	32.06766501148703	-237.34782125643355	-164.183964185197	65.42638847873044	-130.80545950311222	-161.60803169928928	31.41566321445882	-228.89537009873774	-128.3703090785983	32.86031659613302	-247.07299895637172	-134.73796416221901	50.54893683184063	-187.9412115769283	-103.59921819086408	65.67548355424402	-158.97187560294373	
134	4.466666666666667	91.9776788488863	1627.1989983714955	-302.37195873361964	85.5769447457447	1429.8252373605828	-356.5414899951841	78.58998769250509	1347.8108763521702	-188.54310667445395	236.30235947436196	1319.114688805598	-182.91703932387662	293.5929836424127	1147.5753804216022	-367.6031712971965	151.18425372445165	1309.4706081318095	-445.0893558477105	-53.44556586779927	1311.8993375340217	-210.12831589974815	-113.89257791891373	1141.9665657517155	-384.45611783883845	45.28769021200109	1292.1502030995766	-463.74748349079505	183.45242805385757	853.9015511195407	-41.87954732905552	207.76938321019216	479.6178690778558	-146.07121778478722	255.49227336267484	110.7586054020368	-78.23504763043184	-16.047904709986945	839.5685271021516	-39.934346470345716	-59.075173973441736	478.6114610591566	-139.8038545897267	-93.07376861569702	112.37967844374452	-64.58667582218307	254.80346393694387	56.784584225141835	-57.285640577927374	-100.44957079450104	51.734792510189806	-33.84146443933105	287.67146051978204	37.00156378188725	-283.39765839335996	344.6312587166513	36.905925633608426	-212.615166068052	-99.75317195913902	49.222662762045346	-264.5380703404417	-177.55710524615847	32.2518890972037	-204.39529488271964	-63.75443380179254	874.3358115191915	-106.68951943229321	228.4856880948267	894.1162202556544	-105.12796003645546	125.59176111504227	967.4507960700115	10.680543548757221	26.246783480079028	957.3091282367286	6.536000603109493	103.87470514326327	1339.443550196771	-492.47202284184937	105.62082515017856	1381.9701731528899	-459.9531105043191	96.85669875577989	1320.4855123904304	-512.2486629192739	101.31638521223572	1359.3307774905202	-475.82197078670015	-106.50978316378732	480.0840524201345	-138.2677585149286	157.09680690801991	1291.6614401823683	-466.9709593591793	-143.69025475092687	105.23274024403135	-49.813122022637515	225.83805899149908	94.57384585354117	-94.04862888929897	250.68160582397064	473.65915913480677	-145.3748390962851	93.73698153713883	1157.4123717870473	-237.49570387860464	-67.84328730294304	95.56616883830354	-79.82346575000862	166.55310382867484	474.07458531837517	-151.3125057143422	-97.19175428140295	1123.685226888519	-360.44366205567104	95.71446157103469	938.4917672999087	-195.98137923692926	320.22452257684637	1175.4737553916113	-376.22848595029603	150.83082126165897	1313.923656254396	-413.6168467585794	32.75683941784306	1276.5954067126079	-489.23729045142636	-137.03212251310666	1171.743427535883	-390.3878084549047	-16.252981238040935	479.88693399511567	-158.92117148991053	266.93043224076393	1129.4168054871247	-350.6730232683936	303.12812428483903	99.95112660621075	-71.60494120749078	37.044373141596544	1303.8765244441083	-436.06835941534547	86.96629733531529	1367.4809884154472	-314.3925013850398	69.38007047720579	1218.0290457616659	-49.75483985577097	117.22054282130415	1458.2065590780119	-367.63259923013317	50.807260981442134	1458.6519449061493	-364.79584086185224	4.597806650343983	1487.4882497951714	-268.7669610369767	169.44159349038426	1484.3949487098225	-272.46522806304205	71.70138803913005	1418.310521726516	-156.1103834054634	66.00090805873836	1316.221438681469	-75.76957852731893	84.13963028684142	1065.6369849628495	-25.063905549674782	71.00696204465933	1205.2648146850481	-59.98328476883073	246.2644163377627	1262.054722741115	-305.51981883574774	300.27189615866126	1202.7649733780263	-270.99728118703695	-86.7291574805336	1293.8750899076133	-253.8114928298003	-90.20011178373969	1160.0154540557699	-309.68185368720157	134.5887867650925	977.8040814446833	-159.5346613716004	99.55382801400181	1064.3188425786989	-244.89575157022648	34.872016408670454	1197.743017202408	-261.57625994988905	27.212778910870497	1004.9252936733288	-184.69738067650547	167.35188818432349	1242.0995279377398	-264.66508273944027	178.90155322775718	650.4406989908019	-99.72668835612448	276.407125089692	620.2707060469847	-102.32810965432066	-1.195042830929839	578.3898676264372	-112.5295761129895	-123.8227803119009	755.7950591989022	-78.62462815274718	-150.42441358730406	207.3248850806408	-81.21493313164594	-27.24501088969826	330.4454310343349	-122.74573653943598	283.63870323176974	330.44535439650565	-107.30495061696547	195.32986917412862	280.3435729596728	-121.18037360793716	308.28889469017076	31.037000812462235	-261.19622522827785	329.92434276346256	34.2116367111121	-240.6920726306122	262.2318042278872	51.979938839362475	-202.97748860341426	297.1472889683654	60.226496200619934	-184.13928660619817	326.63094778116033	47.778671770847424	-166.44305860517264	-148.13413155223958	34.215319502123236	-236.14525187624955	-163.79989476754835	64.98460676336244	-128.54627457506513	-162.93503037287076	33.52255562367343	-227.51286878489904	-129.9234836854379	35.04059075017611	-246.0922329814266	-135.29383206365873	51.25211349050761	-186.4403387572613	-103.59181465274277	65.23852513875694	-157.50906286989473	
135	4.5	92.35566193653104	1639.3400856541034	-293.9452947139135	86.70768219622417	1441.9368417190997	-348.09110395654983	78.28235103834041	1358.3882156691666	-181.77099846642295	238.2906831444998	1329.316711112175	-181.96834365936473	293.9308586741801	1155.004932674224	-364.5511797818112	153.67129450999172	1320.0223477651725	-439.3236833212573	-52.97799681413519	1320.4165483299575	-205.78925015410232	-113.03275665950405	1152.655365561902	-382.34174120596435	46.25566049536843	1305.0701984042173	-457.0245521209307	184.47263397974106	859.7154391332135	-54.19773331333789	205.2843882926579	479.95539609241973	-135.3579513486899	254.98580046704856	109.85096271366012	-76.29142405579128	-14.985102169848997	844.8917275488957	-56.74159291912202	-55.363149583831955	477.39946639684354	-126.38226320455826	-91.10049868593758	109.17848005987263	-62.543449640692415	254.59740643244632	55.85217689059749	-56.2037362485743	-98.36502168053022	48.007917338800056	-33.35840931031369	286.8094231736099	36.38618687098678	-282.43763933963976	344.0707005052179	37.32967450662208	-211.90505873677347	-102.25388334261896	49.67228922070971	-264.03096156288166	-179.02875579162628	32.4069225772224	-202.66208746063944	-61.639803238451165	884.1319505343939	-121.73754563273262	230.46547922448477	904.3267943830722	-113.69614507965483	125.35220067500627	969.2136493902128	5.121464901783473	26.12638634456683	959.1911696814605	-1.4544696256519885	106.33043039530324	1351.1519723158046	-485.92279098089057	109.3264615968614	1393.464095590374	-453.21575388207356	98.17861937421972	1334.5871320941035	-504.43102602020076	102.10010040701034	1372.7176247754046	-467.1961654981289	-103.0769942850753	477.7391527060426	-123.97777547693958	158.94980622680458	1302.2188009515432	-461.3713669942293	-141.57460017279686	101.91213847660013	-47.34704726164438	225.04664643877805	93.94021740600527	-91.84402717139534	248.231336947278	473.5961802468443	-135.81917741254534	94.44953874719619	1169.8227930766795	-237.07996862768826	-66.19274528588548	92.68949143971561	-78.64152824270867	164.0339834948296	474.18316426925935	-140.66628305556367	-96.36894406775868	1134.0814004153235	-358.5289702168145	97.25681086005467	949.6333443967262	-202.98735124422075	320.92197731490546	1182.4769810251878	-373.4236269511691	153.81840169206737	1324.3144973352407	-407.82718840518106	34.04981418082011	1289.972808340807	-482.9434699257818	-136.17344611653303	1182.495205453325	-387.94329652679943	-13.85368939248649	477.3754031053896	-148.71564457118885	267.0074890263516	1137.3660648176365	-347.484899849793	302.76363790982566	99.00689977829458	-70.84911291751496	37.68390590418634	1316.207218672833	-429.2021762168573	88.37161091190346	1379.6029410457625	-305.93675559146516	69.16352786649253	1223.945358399699	-47.48661990267821	118.23105340369399	1470.4428733628306	-359.2047286262962	51.818300168095185	1470.6239485566355	-356.3267100790128	5.554018500969635	1499.2857583264554	-260.2719922761146	170.40649078257204	1496.8488584304716	-264.0724727596589	70.96577443332225	1427.7194193879884	-146.9976431578235	65.43818832852926	1322.9462888304256	-70.17734517301068	84.51527266200901	1070.8704463696272	-27.91055605134653	70.88319993725733	1211.5417457454355	-58.134933270581264	247.85308528233958	1270.750358338351	-303.890723214524	301.04846579273334	1211.203070038344	-268.56000272484846	-86.1732993568206	1302.9275440909132	-249.75625527919462	-89.48612696022491	1169.7762331397273	-307.30363073411837	135.82731205183808	987.8579263431068	-165.08969671646975	100.7071538403074	1077.059096161311	-247.60329401367477	35.49035871034805	1210.6896678518756	-259.99790691603863	28.420538878202	1015.3493762987258	-189.71356550355134	167.7812703279555	1255.699202819469	-261.0996155506789	178.03579018546	653.2161746087947	-99.80410708371274	275.3318533080326	622.3380761320776	-101.89014314144701	1.4420567792957293	579.2820198043036	-110.46866839406003	-122.81502666000704	756.8354898656258	-84.11241719831885	-147.956240423855	205.00842928633855	-75.35879769746253	-24.413125847942418	328.54188030630326	-114.51524080140226	282.1704214215001	330.16015528471763	-101.27951141822561	193.6848933797452	280.175271320217	-114.43202985272187	307.6214041273634	30.794946619774944	-260.3207290896978	329.289220578687	34.356996903812735	-239.9146337215193	261.47080156203	51.01809892590258	-201.92184619880177	296.323554657925	59.874183372829165	-183.2448548091674	326.0904568246298	47.94576192083806	-165.66545628278087	-150.2198505562897	34.64601873063959	-234.95232803881035	-163.43117632755616	63.61716100626214	-126.52798170204565	-164.85376191258334	33.94759453895515	-226.04023470501437	-132.20162533586694	35.466037504624126	-245.2441855283354	-136.22101208844484	50.64711616601474	-185.21600900593367	-103.8078308297728	63.78309890396573	-156.67677318245822	
